<?xml version="1.0" encoding="UTF-8" standalone="no"?>
<!DOCTYPE svg PUBLIC "-//W3C//DTD SVG 1.1//EN" "http://www.w3.org/Graphics/SVG/1.1/DTD/svg11.dtd">
<svg width="100%" height="100%" viewBox="0 0 56 56" version="1.1" xmlns="http://www.w3.org/2000/svg" xmlns:xlink="http://www.w3.org/1999/xlink" xml:space="preserve" xmlns:serif="http://www.serif.com/" style="fill-rule:evenodd;clip-rule:evenodd;stroke-linejoin:round;stroke-miterlimit:2;">
    <g id="button_b" transform="matrix(1,0,0,1,-4,-4)">
        <path d="M32,4C16.64,4 4,16.64 4,32C4,47.36 16.64,60 32,60C47.36,60 60,47.36 60,32C60,16.64 47.36,4 32,4ZM23.758,17.781L31.648,17.781C34.826,17.781 37.137,18.374 38.582,19.559C40.027,20.743 40.75,22.632 40.75,25.223C40.75,26.876 40.359,28.296 39.578,29.48C39.044,30.327 38.276,30.939 37.273,31.316C38.667,31.85 39.682,32.658 40.32,33.738C40.971,34.806 41.297,36.186 41.297,37.879C41.297,40.509 40.535,42.573 39.012,44.07C37.501,45.555 35.47,46.31 32.918,46.336L23.758,46.336L23.758,17.781ZM30.262,23.074L30.262,28.934L31.805,28.934C32.573,28.934 33.12,28.686 33.445,28.191C33.771,27.684 33.934,26.928 33.934,25.926C33.934,24.91 33.745,24.181 33.367,23.738C33.003,23.296 32.417,23.074 31.609,23.074L30.262,23.074ZM30.262,34.07L30.262,40.984L32.039,40.984C33.602,40.984 34.383,39.78 34.383,37.371C34.383,35.171 33.576,34.07 31.961,34.07L30.262,34.07Z" style="fill:white;fill-rule:nonzero;"/>
    </g>
</svg>
