<?xml version="1.0" encoding="UTF-8" standalone="no"?>
<!DOCTYPE svg PUBLIC "-//W3C//DTD SVG 1.1//EN" "http://www.w3.org/Graphics/SVG/1.1/DTD/svg11.dtd">
<svg width="100%" height="100%" viewBox="0 0 52 49" version="1.1" xmlns="http://www.w3.org/2000/svg" xmlns:xlink="http://www.w3.org/1999/xlink" xml:space="preserve" xmlns:serif="http://www.serif.com/" style="fill-rule:evenodd;clip-rule:evenodd;stroke-linejoin:round;stroke-miterlimit:2;">
    <g id="rect5964" transform="matrix(1,0,0,1,-6.25776,-8.59174)">
        <path d="M53.324,42.841L10.676,57.018L10.676,28.469L53.324,42.841Z" style="fill:white;fill-rule:nonzero;"/>
    </g>
    <g id="path68246" transform="matrix(1.02286,0,0,1.22647,-10.0993,-13.0149)">
        <path d="M9.874,18.322L12.051,18.102C12.317,19.54 13.136,20.259 14.508,20.259C15.959,20.259 16.685,19.713 16.685,18.621C16.685,18.168 16.518,17.842 16.185,17.642C15.852,17.443 15.06,17.183 13.808,16.863C11.452,16.278 10.273,15.192 10.273,13.608C10.273,12.662 10.639,11.93 11.372,11.411C12.104,10.878 13.096,10.612 14.348,10.612C17.117,10.612 18.542,11.67 18.622,13.787L16.345,13.887C16.185,12.809 15.513,12.269 14.328,12.269C13.063,12.269 12.43,12.669 12.43,13.468C12.43,13.761 12.543,14.021 12.77,14.247C13.009,14.473 13.709,14.733 14.867,15.026C16.758,15.519 17.91,16.051 18.323,16.624C18.735,17.196 18.942,17.855 18.942,18.601C18.942,20.852 17.457,21.977 14.488,21.977C11.705,21.977 10.167,20.758 9.874,18.322Z" style="fill:white;fill-rule:nonzero;"/>
    </g>
    <g id="path68248" transform="matrix(1.02286,0,0,1.22647,-10.0993,-13.0149)">
        <path d="M23.096,21.817L23.096,12.529L19.781,12.529L19.781,10.831L28.649,10.831L28.649,12.529L25.353,12.529L25.353,21.817L23.096,21.817Z" style="fill:white;fill-rule:nonzero;"/>
    </g>
    <g id="path68250" transform="matrix(1.02286,0,0,1.22647,-10.0993,-13.0149)">
        <path d="M40.014,21.817L37.597,21.817L36.619,19.28L32.184,19.28L31.266,21.817L28.909,21.817L33.183,10.831L35.62,10.831L40.014,21.817ZM35.959,17.602L34.381,13.308L32.804,17.602L35.959,17.602Z" style="fill:white;fill-rule:nonzero;"/>
    </g>
    <g id="path68252" transform="matrix(1.02286,0,0,1.22647,-10.0993,-13.0149)">
        <path d="M41.013,21.817L41.013,10.831L45.767,10.831C47.258,10.831 48.363,11.051 49.082,11.49C49.801,11.93 50.161,12.722 50.161,13.867C50.161,15.598 49.082,16.624 46.925,16.943C47.897,17.449 48.823,18.408 49.701,19.82L50.96,21.817L48.323,21.817L45.906,18.202C45.653,17.829 45.38,17.563 45.087,17.403C44.794,17.23 44.342,17.143 43.729,17.143L43.27,17.143L43.27,21.817L41.013,21.817ZM43.27,15.565L44.948,15.565C46.066,15.565 46.825,15.472 47.225,15.286C47.637,15.086 47.844,14.666 47.844,14.027C47.844,13.415 47.671,13.015 47.324,12.829C46.992,12.629 46.226,12.529 45.027,12.529L43.27,12.529L43.27,15.565Z" style="fill:white;fill-rule:nonzero;"/>
    </g>
    <g id="path68254" transform="matrix(1.02286,0,0,1.22647,-10.0993,-13.0149)">
        <path d="M54.655,21.817L54.655,12.529L51.339,12.529L51.339,10.831L60.208,10.831L60.208,12.529L56.912,12.529L56.912,21.817L54.655,21.817Z" style="fill:white;fill-rule:nonzero;"/>
    </g>
</svg>
