<?xml version="1.0" encoding="UTF-8" standalone="no"?>
<!DOCTYPE svg PUBLIC "-//W3C//DTD SVG 1.1//EN" "http://www.w3.org/Graphics/SVG/1.1/DTD/svg11.dtd">
<svg width="100%" height="100%" viewBox="0 0 56 56" version="1.1" xmlns="http://www.w3.org/2000/svg" xmlns:xlink="http://www.w3.org/1999/xlink" xml:space="preserve" xmlns:serif="http://www.serif.com/" style="fill-rule:evenodd;clip-rule:evenodd;stroke-linejoin:round;stroke-miterlimit:2;">
    <g id="button_xing" transform="matrix(1,0,0,1,-4,-4)">
        <path d="M32,4C16.64,4 4,16.64 4,32C4,47.36 16.64,60 32,60C47.36,60 60,47.36 60,32C60,16.64 47.36,4 32,4ZM17.979,15.98C18.519,15.98 19.038,16.198 19.415,16.585L32.001,29.171L44.587,16.585C44.949,16.213 45.442,15.995 45.962,15.98C45.981,15.979 46.001,15.979 46.02,15.979C47.118,15.979 48.021,16.882 48.021,17.979C48.021,18.519 47.802,19.037 47.415,19.414L34.829,32L47.415,44.586C47.808,44.963 48.03,45.484 48.03,46.029C48.03,47.126 47.127,48.029 46.03,48.029C45.485,48.029 44.964,47.807 44.587,47.414L32.001,34.828L19.415,47.414C19.037,47.807 18.516,48.029 17.971,48.029C16.874,48.029 15.971,47.126 15.971,46.029C15.971,45.484 16.193,44.963 16.586,44.586L29.172,32L16.586,19.414C16.2,19.037 15.981,18.52 15.981,17.98C15.981,16.884 16.883,15.981 17.979,15.98Z" style="fill:white;fill-rule:nonzero;"/>
    </g>
</svg>
