<?xml version="1.0" encoding="UTF-8" standalone="no"?>
<!DOCTYPE svg PUBLIC "-//W3C//DTD SVG 1.1//EN" "http://www.w3.org/Graphics/SVG/1.1/DTD/svg11.dtd">
<svg width="100%" height="100%" viewBox="0 0 56 56" version="1.1" xmlns="http://www.w3.org/2000/svg" xmlns:xlink="http://www.w3.org/1999/xlink" xml:space="preserve" xmlns:serif="http://www.serif.com/" style="fill-rule:evenodd;clip-rule:evenodd;stroke-linejoin:round;stroke-miterlimit:2;">
    <g id="button_x" transform="matrix(1,0,0,1,-4,-4)">
        <path d="M32,4C16.64,4 4,16.64 4,32C4,47.36 16.64,60 32,60C47.36,60 60,47.36 60,32C60,16.64 47.36,4 32,4ZM22.264,17.723L29.139,17.723L32.068,24.988L34.607,17.723L41.717,17.723L35.682,31.668L42.205,46.277L35.154,46.277L31.873,38.133L28.865,46.277L21.795,46.277L28.318,31.453L22.264,17.723Z" style="fill:white;fill-rule:nonzero;"/>
    </g>
</svg>
