<?xml version="1.0" encoding="UTF-8" standalone="no"?>
<!DOCTYPE svg PUBLIC "-//W3C//DTD SVG 1.1//EN" "http://www.w3.org/Graphics/SVG/1.1/DTD/svg11.dtd">
<svg width="100%" height="100%" viewBox="0 0 560 280" version="1.1" xmlns="http://www.w3.org/2000/svg" xmlns:xlink="http://www.w3.org/1999/xlink" xml:space="preserve" xmlns:serif="http://www.serif.com/" style="fill-rule:evenodd;clip-rule:evenodd;stroke-linejoin:round;stroke-miterlimit:2;">
    <rect id="Artboard1" x="0" y="0" width="560" height="280" style="fill:none;"/>
    <g id="Artboard11" serif:id="Artboard1">
        <g transform="matrix(0.888605,0,0,10.7692,7.02811,0)">
            <path d="M70.866,19.661L-7.909,19.661L-7.909,6.661L70.866,6.661L70.866,0L622.292,0L622.292,26L70.866,26L70.866,19.661ZM594.158,2.321L99,2.321L99,23.679L594.158,23.679L594.158,2.321Z" style="fill:white;"/>
        </g>
        <g transform="matrix(1.524,0,0,1.19945,261,-30)">
            <rect x="0" y="70.866" width="70.866" height="141.732" style="fill:white;"/>
        </g>
        <g transform="matrix(1.524,0,0,1.19945,397,-30)">
            <rect x="0" y="70.866" width="70.866" height="141.732" style="fill:white;"/>
        </g>
    </g>
</svg>
