<?xml version="1.0" encoding="UTF-8" standalone="no"?>
<!DOCTYPE svg PUBLIC "-//W3C//DTD SVG 1.1//EN" "http://www.w3.org/Graphics/SVG/1.1/DTD/svg11.dtd">
<svg width="100%" height="100%" viewBox="0 0 24 20" version="1.1" xmlns="http://www.w3.org/2000/svg" xmlns:xlink="http://www.w3.org/1999/xlink" xml:space="preserve" xmlns:serif="http://www.serif.com/" style="fill-rule:evenodd;clip-rule:evenodd;stroke-linejoin:round;stroke-miterlimit:2;">
    <g id="Artboard1" transform="matrix(0.899223,0,0,1,0,0)">
        <rect x="0" y="0" width="26.69" height="20" style="fill:none;"/>
        <clipPath id="_clip1">
            <rect x="0" y="0" width="26.69" height="20"/>
        </clipPath>
        <g clip-path="url(#_clip1)">
            <g transform="matrix(1.05355,0,0,0.947381,-1.40538,-3.26345)">
                <path d="M15.359,22.142C15.359,22.887 14.746,23.5 14.001,23.5C13.255,23.5 12.642,22.887 12.642,22.142C12.642,21.397 13.255,20.784 14.001,20.784C14.746,20.784 15.359,21.397 15.359,22.142ZM26.347,8.899C19.196,3.034 8.805,3.034 1.654,8.899C1.445,9.071 1.323,9.328 1.323,9.599C1.323,10.096 1.732,10.505 2.229,10.505C2.439,10.505 2.642,10.432 2.804,10.299C9.289,4.981 18.712,4.981 25.197,10.299C25.359,10.432 25.562,10.505 25.772,10.505C26.269,10.505 26.678,10.096 26.678,9.599C26.678,9.328 26.556,9.071 26.347,8.899ZM22.716,12.948C17.629,8.92 10.379,8.92 5.292,12.948C5.075,13.119 4.949,13.381 4.949,13.657C4.949,14.154 5.358,14.563 5.854,14.563C6.059,14.563 6.257,14.494 6.417,14.367C10.848,10.86 17.16,10.86 21.591,14.367C21.751,14.494 21.949,14.563 22.153,14.563C22.43,14.563 22.691,14.437 22.863,14.22C22.99,14.06 23.059,13.862 23.059,13.657C23.059,13.381 22.933,13.119 22.716,12.948ZM19.065,16.995C16.055,14.808 11.953,14.808 8.943,16.995C8.709,17.166 8.571,17.438 8.571,17.728C8.571,18.224 8.98,18.633 9.476,18.633C9.668,18.633 9.855,18.573 10.01,18.46C12.385,16.733 15.623,16.733 17.998,18.46C18.153,18.573 18.34,18.633 18.531,18.633C19.028,18.633 19.437,18.224 19.437,17.728C19.437,17.438 19.298,17.166 19.065,16.995Z" style="fill:white;fill-rule:nonzero;"/>
            </g>
        </g>
    </g>
</svg>
