<?xml version="1.0" encoding="UTF-8" standalone="no"?>
<!DOCTYPE svg PUBLIC "-//W3C//DTD SVG 1.1//EN" "http://www.w3.org/Graphics/SVG/1.1/DTD/svg11.dtd">
<svg width="100%" height="100%" viewBox="0 0 22 24" version="1.1" xmlns="http://www.w3.org/2000/svg" xmlns:xlink="http://www.w3.org/1999/xlink" xml:space="preserve" xmlns:serif="http://www.serif.com/" style="fill-rule:evenodd;clip-rule:evenodd;stroke-linejoin:round;stroke-miterlimit:2;">
    <rect id="Artboard1" x="0" y="0" width="22" height="23.001" style="fill:none;"/>
    <g id="Artboard11" serif:id="Artboard1">
        <g transform="matrix(0.125,0,0,0.125,-5,-5.125)">
            <path d="M176,89L176,217C176,223.158 169.333,227.007 164,223.928C161.525,222.499 160,219.858 160,217L160,89C160,82.842 166.667,78.993 172,82.072C174.475,83.501 176,86.142 176,89ZM208,41C203.582,41 200,44.582 200,49L200,217C200,223.158 206.667,227.007 212,223.928C214.475,222.499 216,219.858 216,217L216,49C216,44.582 212.418,41 208,41ZM128,121C123.582,121 120,124.582 120,129L120,217C120,223.158 126.667,227.007 132,223.928C134.475,222.499 136,219.858 136,217L136,129C136,124.582 132.418,121 128,121ZM88,161C83.582,161 80,164.582 80,169L80,217C80,223.158 86.667,227.007 92,223.928C94.475,222.499 96,219.858 96,217L96,169C96,164.582 92.418,161 88,161ZM48,201C43.582,201 40,204.582 40,209L40,217C40,223.158 46.667,227.007 52,223.928C54.475,222.499 56,219.858 56,217L56,209C56,204.582 52.418,201 48,201Z" style="fill:white;fill-rule:nonzero;"/>
        </g>
    </g>
</svg>
