<?xml version="1.0" encoding="UTF-8" standalone="no"?>
<!DOCTYPE svg PUBLIC "-//W3C//DTD SVG 1.1//EN" "http://www.w3.org/Graphics/SVG/1.1/DTD/svg11.dtd">
<svg width="100%" height="100%" viewBox="0 0 620 280" version="1.1" xmlns="http://www.w3.org/2000/svg" xmlns:xlink="http://www.w3.org/1999/xlink" xml:space="preserve" xmlns:serif="http://www.serif.com/" style="fill-rule:evenodd;clip-rule:evenodd;stroke-linejoin:round;stroke-miterlimit:2;">
    <g id="Artboard1" transform="matrix(1.10714,0,0,1,0,0)">
        <rect x="0" y="0" width="560" height="280" style="fill:none;"/>
        <clipPath id="_clip1">
            <rect x="0" y="0" width="560" height="280"/>
        </clipPath>
        <g clip-path="url(#_clip1)">
            <g transform="matrix(0.802611,0,0,10.7692,6.34797,0)">
                <path d="M70.866,19.661L-7.909,19.661L-7.909,6.661L70.866,6.661L70.866,0L622.292,0L622.292,26L70.866,26L70.866,19.661ZM594.158,2.321L99,2.321L99,23.679L594.158,23.679L594.158,2.321Z" style="fill:white;"/>
            </g>
            <g transform="matrix(1.37652,0,0,1.19945,358.581,-30)">
                <rect x="0" y="70.866" width="70.866" height="141.732" style="fill:white;"/>
            </g>
        </g>
    </g>
</svg>
